# Blender v2.79 (sub 0) OBJ File: 'Bullet.blend'
# www.blender.org
mtllib Bullet.mtl
o Sphere
v -0.000000 -0.000000 1.000000
v 0.224936 0.309597 0.923880
v 0.415627 0.572061 0.707107
v 0.543043 0.747434 0.382683
v 0.587785 0.809017 -0.000000
v 0.363953 0.118256 0.923880
v 0.672498 0.218508 0.707107
v 0.878661 0.285495 0.382683
v 0.951056 0.309017 -0.000000
v 0.363954 -0.118256 0.923880
v 0.672498 -0.218508 0.707107
v 0.878661 -0.285494 0.382683
v 0.951056 -0.309017 -0.000000
v 0.224936 -0.309597 0.923880
v 0.415627 -0.572061 0.707107
v 0.543043 -0.747434 0.382683
v 0.587785 -0.809017 -0.000000
v 0.000000 -0.382683 0.923880
v 0.000000 -0.707107 0.707107
v 0.000000 -0.923879 0.382683
v -0.000000 -1.000000 -0.000000
v -0.224936 -0.309597 0.923880
v -0.415627 -0.572061 0.707107
v -0.543043 -0.747434 0.382683
v -0.587785 -0.809017 -0.000000
v -0.363953 -0.118256 0.923880
v -0.672498 -0.218508 0.707107
v -0.878662 -0.285494 0.382683
v -0.951056 -0.309017 -0.000000
v -0.363954 0.118256 0.923880
v -0.672498 0.218508 0.707107
v -0.878662 0.285495 0.382683
v -0.951056 0.309017 -0.000000
v -0.224936 0.309597 0.923880
v -0.415627 0.572061 0.707107
v -0.543043 0.747434 0.382683
v -0.587785 0.809017 -0.000000
v -0.000000 0.382683 0.923880
v -0.000000 0.707107 0.707107
v -0.000000 0.923880 0.382683
v -0.000000 1.000000 -0.000000
v 0.000000 0.923880 -5.470921
v 0.000000 0.707107 -5.795343
v 0.587785 0.809017 -5.088237
v 0.543043 0.747435 -5.470921
v 0.415627 0.572062 -5.795343
v 0.224936 0.309598 -6.012116
v 0.951057 0.309018 -5.088237
v 0.878662 0.285495 -5.470921
v 0.672499 0.218509 -5.795343
v 0.363954 0.118256 -6.012116
v 0.951057 -0.309016 -5.088237
v 0.878662 -0.285494 -5.470921
v 0.672499 -0.218507 -5.795343
v 0.363954 -0.118255 -6.012116
v 0.587785 -0.809016 -5.088237
v 0.543043 -0.747433 -5.470921
v 0.415627 -0.572061 -5.795343
v 0.224936 -0.309597 -6.012116
v 0.000000 -0.999999 -5.088237
v 0.000000 -0.923879 -5.470921
v 0.000000 -0.707106 -5.795343
v 0.000000 -0.382683 -6.012116
v -0.587785 -0.809016 -5.088237
v -0.543042 -0.747434 -5.470921
v -0.415627 -0.572061 -5.795343
v -0.224935 -0.309597 -6.012116
v 0.000000 0.000001 -6.088237
v -0.951056 -0.309016 -5.088237
v -0.878661 -0.285494 -5.470921
v -0.672498 -0.218507 -5.795343
v -0.363953 -0.118255 -6.012116
v -0.951056 0.309017 -5.088237
v -0.878661 0.285495 -5.470921
v -0.672498 0.218509 -5.795343
v -0.363953 0.118256 -6.012116
v -0.587785 0.809017 -5.088237
v -0.543042 0.747435 -5.470921
v -0.415627 0.572062 -5.795343
v -0.224935 0.309598 -6.012116
v 0.000000 1.000000 -5.088237
v 0.000000 0.382684 -6.012116
vn 0.3036 0.9345 0.1859
vn 0.1776 0.5467 0.8182
vn 0.2608 0.8027 0.5363
vn 0.0633 0.1947 0.9788
vn 0.6828 0.4961 0.5363
vn 0.1656 0.1203 0.9788
vn 0.7949 0.5775 0.1859
vn 0.4651 0.3379 0.8182
vn 0.8440 0.0000 0.5363
vn 0.2047 0.0000 0.9788
vn 0.9826 0.0000 0.1859
vn 0.5749 0.0000 0.8182
vn 0.7949 -0.5775 0.1859
vn 0.4651 -0.3379 0.8182
vn 0.6828 -0.4961 0.5363
vn 0.1656 -0.1203 0.9788
vn 0.1776 -0.5467 0.8182
vn 0.2608 -0.8027 0.5363
vn 0.0633 -0.1947 0.9788
vn 0.3036 -0.9345 0.1859
vn -0.2608 -0.8027 0.5363
vn -0.0633 -0.1947 0.9788
vn -0.3036 -0.9345 0.1859
vn -0.1776 -0.5467 0.8182
vn -0.1656 -0.1203 0.9788
vn -0.7949 -0.5775 0.1859
vn -0.4651 -0.3379 0.8182
vn -0.6828 -0.4961 0.5363
vn -0.9826 0.0000 0.1859
vn -0.5749 0.0000 0.8182
vn 0.8090 0.5878 0.0000
vn -0.8440 0.0000 0.5363
vn -0.2047 -0.0000 0.9788
vn -1.0000 0.0000 -0.0000
vn 1.0000 0.0000 0.0000
vn -0.8090 -0.5878 -0.0000
vn -0.6828 0.4961 0.5363
vn -0.1656 0.1203 0.9788
vn 0.8090 -0.5878 -0.0000
vn -0.3090 -0.9511 -0.0000
vn -0.7949 0.5775 0.1859
vn -0.4651 0.3379 0.8182
vn -0.3090 0.9511 0.0000
vn -0.2608 0.8027 0.5363
vn -0.0633 0.1947 0.9788
vn 0.3090 -0.9511 -0.0000
vn -0.8090 0.5878 0.0000
vn -0.3036 0.9345 0.1859
vn -0.1776 0.5467 0.8182
vn 0.3090 0.9511 0.0000
vn 0.2608 0.8027 -0.5363
vn 0.1776 0.5467 -0.8182
vn 0.3036 0.9345 -0.1859
vn 0.0633 0.1947 -0.9788
vn 0.4651 0.3379 -0.8182
vn 0.7949 0.5775 -0.1859
vn 0.1656 0.1203 -0.9788
vn 0.6828 0.4961 -0.5363
vn 0.2047 0.0000 -0.9788
vn 0.8440 0.0000 -0.5363
vn 0.5749 0.0000 -0.8182
vn 0.9826 0.0000 -0.1859
vn 0.1656 -0.1203 -0.9788
vn 0.6828 -0.4961 -0.5363
vn 0.4651 -0.3379 -0.8182
vn 0.7949 -0.5775 -0.1859
vn 0.1776 -0.5467 -0.8182
vn 0.3036 -0.9345 -0.1859
vn 0.0633 -0.1947 -0.9788
vn 0.2608 -0.8027 -0.5363
vn -0.1776 -0.5467 -0.8182
vn -0.3036 -0.9345 -0.1859
vn -0.0633 -0.1947 -0.9788
vn -0.2608 -0.8027 -0.5363
vn -0.1656 -0.1203 -0.9788
vn -0.6828 -0.4961 -0.5363
vn -0.4651 -0.3379 -0.8182
vn -0.7949 -0.5775 -0.1859
vn -0.8440 0.0000 -0.5363
vn -0.5749 0.0000 -0.8182
vn -0.9826 0.0000 -0.1859
vn -0.2047 -0.0000 -0.9788
vn -0.4651 0.3379 -0.8182
vn -0.7949 0.5775 -0.1859
vn -0.1656 0.1203 -0.9788
vn -0.6828 0.4961 -0.5363
vn -0.3036 0.9345 -0.1859
vn -0.0633 0.1947 -0.9788
vn -0.2608 0.8027 -0.5363
vn -0.1776 0.5467 -0.8182
usemtl Material.001
s off
f 41//1 40//1 4//1 5//1
f 39//2 38//2 2//2 3//2
f 40//3 39//3 3//3 4//3
f 38//4 1//4 2//4
f 4//5 3//5 7//5 8//5
f 2//6 1//6 6//6
f 5//7 4//7 8//7 9//7
f 3//8 2//8 6//8 7//8
f 8//9 7//9 11//9 12//9
f 6//10 1//10 10//10
f 9//11 8//11 12//11 13//11
f 7//12 6//12 10//12 11//12
f 13//13 12//13 16//13 17//13
f 11//14 10//14 14//14 15//14
f 12//15 11//15 15//15 16//15
f 10//16 1//16 14//16
f 15//17 14//17 18//17 19//17
f 16//18 15//18 19//18 20//18
f 14//19 1//19 18//19
f 17//20 16//20 20//20 21//20
f 20//21 19//21 23//21 24//21
f 18//22 1//22 22//22
f 21//23 20//23 24//23 25//23
f 19//24 18//24 22//24 23//24
f 22//25 1//25 26//25
f 25//26 24//26 28//26 29//26
f 23//27 22//27 26//27 27//27
f 24//28 23//28 27//28 28//28
f 29//29 28//29 32//29 33//29
f 27//30 26//30 30//30 31//30
f 5//31 9//31 48//31 44//31
f 28//32 27//32 31//32 32//32
f 26//33 1//33 30//33
f 29//34 33//34 73//34 69//34
f 9//35 13//35 52//35 48//35
f 25//36 29//36 69//36 64//36
f 32//37 31//37 35//37 36//37
f 30//38 1//38 34//38
f 13//39 17//39 56//39 52//39
f 21//40 25//40 64//40 60//40
f 33//41 32//41 36//41 37//41
f 31//42 30//42 34//42 35//42
f 37//43 41//43 81//43 77//43
f 36//44 35//44 39//44 40//44
f 34//45 1//45 38//45
f 17//46 21//46 60//46 56//46
f 33//47 37//47 77//47 73//47
f 37//48 36//48 40//48 41//48
f 35//49 34//49 38//49 39//49
f 41//50 5//50 44//50 81//50
f 43//51 42//51 45//51 46//51
f 82//52 43//52 46//52 47//52
f 42//53 81//53 44//53 45//53
f 68//54 82//54 47//54
f 47//55 46//55 50//55 51//55
f 45//56 44//56 48//56 49//56
f 68//57 47//57 51//57
f 46//58 45//58 49//58 50//58
f 68//59 51//59 55//59
f 50//60 49//60 53//60 54//60
f 51//61 50//61 54//61 55//61
f 49//62 48//62 52//62 53//62
f 68//63 55//63 59//63
f 54//64 53//64 57//64 58//64
f 55//65 54//65 58//65 59//65
f 53//66 52//66 56//66 57//66
f 59//67 58//67 62//67 63//67
f 57//68 56//68 60//68 61//68
f 68//69 59//69 63//69
f 58//70 57//70 61//70 62//70
f 63//71 62//71 66//71 67//71
f 61//72 60//72 64//72 65//72
f 68//73 63//73 67//73
f 62//74 61//74 65//74 66//74
f 68//75 67//75 72//75
f 66//76 65//76 70//76 71//76
f 67//77 66//77 71//77 72//77
f 65//78 64//78 69//78 70//78
f 71//79 70//79 74//79 75//79
f 72//80 71//80 75//80 76//80
f 70//81 69//81 73//81 74//81
f 68//82 72//82 76//82
f 76//83 75//83 79//83 80//83
f 74//84 73//84 77//84 78//84
f 68//85 76//85 80//85
f 75//86 74//86 78//86 79//86
f 78//87 77//87 81//87 42//87
f 68//88 80//88 82//88
f 79//89 78//89 42//89 43//89
f 80//90 79//90 43//90 82//90
